<?xml version="1.0" encoding="UTF-8" standalone="no"?>
<!-- Created with Inkscape (http://www.inkscape.org/) -->

<svg
   xmlns:dc="http://purl.org/dc/elements/1.1/"
   xmlns:cc="http://creativecommons.org/ns#"
   xmlns:rdf="http://www.w3.org/1999/02/22-rdf-syntax-ns#"
   xmlns:svg="http://www.w3.org/2000/svg"
   xmlns="http://www.w3.org/2000/svg"
   xmlns:sodipodi="http://sodipodi.sourceforge.net/DTD/sodipodi-0.dtd"
   xmlns:inkscape="http://www.inkscape.org/namespaces/inkscape"
   width="310.8259"
   height="329.19623"
   id="svg2"
   sodipodi:version="0.32"
   inkscape:version="0.48.2 r9819"
   version="1.0"
   sodipodi:docname="logo.svg"
   inkscape:output_extension="org.inkscape.output.svg.inkscape">
  <defs
     id="defs4" />
  <sodipodi:namedview
     id="base"
     pagecolor="#ffffff"
     bordercolor="#666666"
     borderopacity="1.0"
     inkscape:pageopacity="0.0"
     inkscape:pageshadow="2"
     inkscape:zoom="1.2498206"
     inkscape:cx="150.85725"
     inkscape:cy="160.89651"
     inkscape:document-units="px"
     inkscape:current-layer="layer1"
     inkscape:window-width="1024"
     inkscape:window-height="600"
     inkscape:window-x="0"
     inkscape:window-y="0"
     showgrid="false"
     fit-margin-top="0"
     fit-margin-left="0"
     fit-margin-right="0"
     fit-margin-bottom="0"
     inkscape:window-maximized="1" />
  <metadata
     id="metadata7">
    <rdf:RDF>
      <cc:Work
         rdf:about="">
        <dc:format>image/svg+xml</dc:format>
        <dc:type
           rdf:resource="http://purl.org/dc/dcmitype/StillImage" />
      </cc:Work>
    </rdf:RDF>
  </metadata>
  <g
     inkscape:label="Capa 1"
     inkscape:groupmode="layer"
     id="layer1"
     transform="translate(-104.4999,-234.27674)">
    <g
       transform="matrix(0.9,0,0,0.9,-661.14697,614.35939)"
       id="g2259"
       inkscape:label="Capa 1">
      <g
         id="g11033">
        <path
           style="fill:#e4dbc5;fill-opacity:1;fill-rule:evenodd;stroke:none"
           d="m 976.1875,-419.21875 c -0.55442,-0.0292 -1.1139,0.0257 -1.5625,0.25 -0.73029,0.36515 -1.69126,0.69506 -2.0625,1.4375 -0.40358,0.80717 -1.06739,1.7285 -1.4375,2.46875 -0.33928,0.67856 -0.92111,1.5461 -1.46875,2.09375 -0.56245,0.56246 -1.3743,0.53054 -2.0625,1.21875 -0.54432,0.54433 -1.33784,0.71285 -2.0625,1.4375 -0.76554,0.76554 -1.33626,0.0587 -2.46875,0.625 -1.03775,0.51887 -1.26032,0.85409 -2.0625,1.65625 -0.99943,0.99942 -1.3821,1.65373 -2.46875,2.46875 -0.7738,0.58034 -2.09546,1.86285 -3.09375,2.0625 -1.55491,0.31098 -2.8551,0.16761 -3.9375,1.25 -0.72261,0.72262 -1.31953,1.13205 -2.0625,1.875 -0.92856,0.92856 -1.67461,1.74849 -2.875,2.46875 -1.45148,0.87089 -1.86962,1.69129 -2.90625,2.46875 -0.88065,0.66048 -1.72308,1.14953 -2.875,1.4375 -1.03567,0.25892 -1.62936,1.03235 -2.5,1.25 -1.00873,0.25218 -1.8325,0.67659 -2.5,1.03125 0.38755,-0.0686 0.76398,-0.1222 1.09375,-0.1875 L 935,-391.3125 c 0.16124,-0.0723 0.47971,-0.26249 0.75,-0.40625 -0.79702,0.14185 -1.60943,0.33208 -2,0.625 -0.489,0.36675 -1.84375,0.98822 -1.84375,2.0625 0,1.10811 -0.16119,1.7698 -0.4375,2.875 -0.12325,0.49297 0.12427,2.28267 -0.1875,2.90625 -0.38827,0.77655 -0.44524,1.89049 -0.84375,2.6875 -0.33312,0.66625 -0.94572,1.75826 -1.4375,2.25 -0.65401,0.65401 -0.98546,1.61047 -1.65625,2.28125 -0.32804,0.32803 -1.3395,1.79107 -1.4375,2.28125 -0.29161,1.45803 -0.53046,1.56169 -1.4375,2.46875 -0.48648,0.48649 -1.30046,1.08173 -1.875,1.65625 -0.82284,0.82283 -1.13989,1.21731 -1.65625,2.25 -0.3985,0.79699 -1.48113,1.36857 -1.84375,2.09375 -0.30789,0.61579 -0.39164,1.93016 -1.03125,2.25 -0.73566,0.36783 -1.2479,0.8104 -1.875,1.4375 -0.47271,0.47271 -1.2395,1.05204 -1.84375,1.65625 -0.62664,0.62664 -0.52634,1.05261 -1.03125,2.0625 -0.44979,0.89958 -1.09873,1.53791 -1.65625,2.28125 -0.44543,0.5939 -1.06611,1.5384 -1.4375,2.28125 -0.39854,0.79707 -0.40626,1.6961 -0.40625,2.875 0,1.03223 -10e-6,2.06153 0,3.09375 0,0.93343 -0.22507,2.19352 0,3.09375 0.22649,0.90594 0.28921,1.75798 1.03125,2.5 0.40832,0.40832 1.03224,1.0977 1.21875,1.84375 0.32438,1.29752 0.75121,1.92245 2.28125,2.6875 1.20513,0.60256 3.14761,2.06249 4.53125,2.0625 1.24191,0 2.71681,0.0546 3.53125,-1.03125 0.84591,-1.12788 1.29988,-1.03126 2.875,-1.03125 1.10104,0 2.21144,-10e-6 3.3125,0 1.61544,0 2.67307,-0.0442 4.125,-0.625 1.73393,-0.69357 2.38823,-1.58473 3.71875,-2.25 1.57192,-0.78596 2.33752,-2.15 3.5,-3.3125 1.08641,-1.08641 2.1146,-1.70834 3.09375,-2.6875 0.94422,-0.94422 1.81222,-0.78108 2.90625,-1.4375 1.40225,-0.84135 3.2366,-1.39285 4.34375,-2.5 1.18685,-1.18685 3.41848,-1.83235 5.15625,-2.875 1.39494,-0.83697 3.30989,-2.06249 4.9375,-2.0625 2.12818,0 2.85422,0.75418 4.5625,1.4375 1.85098,0.7404 3.6144,1.77111 5.28125,2.96875 -0.0136,0.0181 -0.0177,0.0444 -0.0313,0.0625 -0.48311,0.64411 -1.09096,0.75 -1.90625,0.75 -0.68696,0 -1.58944,0.55818 -1.90625,0.875 -0.55021,0.55021 -1.00981,1.26961 -1.3125,1.875 -0.29339,0.58676 -0.56232,0.84303 -0.71875,1.46875 -0.19947,0.79795 -1.22052,0.71875 -1.90625,0.71875 -0.53929,-10e-6 -1.14568,0.53894 -1.59375,0.875 -0.44734,0.33551 -0.628,1.29323 -0.75,1.78125 -0.14741,0.5895 -1.11436,1.31916 -1.4375,1.75 -0.40443,0.53928 -0.97858,0.78395 -1.46875,1.4375 -0.4166,0.55547 -1.03537,0.73465 -1.46875,1.3125 -0.38207,0.50945 -0.81459,0.97085 -1.3125,1.46875 -0.46719,0.46717 -0.75324,0.91274 -1.03125,1.46875 -0.32329,0.64654 -0.89113,1.2122 -1.15625,1.875 -0.29221,0.73055 -0.91374,1.09331 -1.3125,1.625 -0.487,0.6493 -0.71477,0.86702 -1.15625,1.75 -0.31479,0.62958 -0.51494,1.12364 -0.75,1.59375 -0.31736,0.63477 -0.29294,1.36713 -0.5625,1.90625 -0.33319,0.66646 -0.59048,1.26816 -0.75,1.90625 -0.15876,0.63501 -0.42096,0.90259 -0.59375,1.59375 -0.18482,0.73928 -0.68152,0.97607 -0.875,1.75 -0.13995,0.55972 -0.423,1.192 -0.5625,1.75 -0.19219,0.76874 -0.30339,1.48177 -0.59375,2.0625 -0.35161,0.70321 -0.42457,1.35452 -0.59375,2.03125 -0.195,0.78003 0.0611,1.72456 -0.125,2.46875 -0.20375,0.81488 -0.25379,1.11962 -0.75,1.78125 -0.45991,0.61321 -0.84271,1.12291 -1.15625,1.75 -0.34654,0.69313 -1.03065,1.46755 -1.3125,2.03125 -0.36293,0.72584 -0.49644,0.86077 -0.71875,1.75 -0.17597,0.70397 0.0118,1.5152 -0.15625,2.1875 -0.17727,0.70894 -0.50627,1.16878 -0.71875,1.59375 -0.2531,0.50617 -0.49334,1.11168 -0.75,1.625 -0.29361,0.58727 -0.80305,1.04362 -1.15625,1.75 -0.32675,0.65348 -0.93591,1.14023 -1.625,1.3125 -0.63657,0.15915 -1.52746,0 -2.1875,0 -0.72988,10e-6 -1.4576,0 -2.1875,0 -0.75892,10e-6 -0.92915,-0.52289 -1.4375,-1.03125 -0.44303,-0.44304 -1.08684,-0.73092 -1.625,-1 -0.67793,-0.33897 -1.20056,-0.63806 -1.75,-1.1875 -0.59805,-0.59806 -1.06463,-0.81356 -1.75,-1.15625 -0.6304,-0.3152 -1.31175,-0.53106 -2.1875,-0.75 -0.58358,-0.14588 -1.17171,-0.57418 -1.75,-0.71875 -0.67085,-0.16771 -1.15747,-0.42248 -1.75,-0.71875 -0.61823,-0.3091 -0.96347,-0.68223 -1.46875,-1.1875 -0.51815,-0.51819 -1.134,-0.84825 -1.75,-1.15625 -0.52074,-0.26036 -1.28573,-0.43862 -1.90625,-0.59375 -0.63707,-0.15925 -1.50233,-0.53242 -2.1875,-0.875 -0.60788,-0.30394 -1.2087,-0.42718 -1.75,-0.5625 -0.60015,-0.15003 -1.15257,-0.65441 -1.59375,-0.875 -0.82319,-0.41162 -1.45426,-0.69169 -2.1875,-0.875 -0.72169,-0.18042 -1.28937,-0.51968 -1.75,-0.75 -0.53991,-0.26996 -1.18123,-0.34062 -1.625,-0.5625 -0.71284,-0.35643 -1.4422,-0.58947 -2.03125,-1.03125 -0.58479,-0.43861 -0.99089,-0.80795 -1.75,-1.1875 -0.81181,-0.4059 -1.28129,-0.53129 -1.90625,-1.15625 -0.53937,-0.53935 -1.39295,-0.55585 -2.03125,-0.875 -0.57261,-0.28629 -1.1306,-0.28225 -1.8125,-0.28125 -0.13714,-0.16908 -0.27927,-0.3125 -0.5,-0.3125 -0.53641,0 -1.08857,-10e-6 -1.625,0 -0.69135,0 -1.47071,0.0937 -2.09375,0.0937 -0.70864,0 -1.07525,0.17507 -1.625,0.3125 -0.52283,0.13071 -1.00032,0.25015 -1.5,0.5 -0.50404,0.25202 -0.86553,0.3523 -1.3125,0.6875 -0.2756,0.2067 -1.21873,0.71242 -1.21875,1.125 0,0.49216 0.12614,1.09258 -0.1875,1.40625 -0.31357,0.31356 -0.50183,0.81433 -0.90625,1.21875 -0.44609,0.44609 -0.85607,1.11172 -1,1.6875 -0.0861,0.34439 -0.0863,1.39879 -0.3125,1.625 -0.47982,0.47982 -0.88866,1.06492 -1.59375,1.59375 -1.56632,1.17474 -2.57527,2.22006 -2.9375,4.03125 -0.24207,1.21032 -0.10383,1.12802 -0.6875,1.90625 -0.3067,0.40893 -0.7007,0.88818 -1.125,1.3125 -0.42761,0.42761 -0.68687,0.84326 -1.1875,1.21875 -0.53249,0.39937 -1.10612,0.8874 -1.625,1.40625 -0.37099,0.37099 -0.68796,0.78173 -1.09375,1.1875 -0.31236,0.31235 -1.08228,0.6729 -1.21875,1.21875 -0.11014,0.44056 -0.005,1.13192 -0.28125,1.5 -0.70393,0.93857 -0.89622,1.96374 -2.03125,2.53125 -0.59493,0.29747 -1.09251,0.77998 -1.5,1.1875 -0.43998,0.43997 -1.02738,0.65239 -1.5,1.125 -0.32939,0.32939 -0.40627,0.7029 -0.40625,1.3125 0,0.65468 -0.3455,1.36069 -0.90625,1.78125 -0.47207,0.35405 -0.54997,0.74373 -1.125,1.03125 -0.5915,0.29575 -0.95161,0.73287 -1.40625,1.1875 -0.43375,0.43375 -0.76887,0.62554 -0.90625,1.3125 -0.1027,0.5135 -0.6875,1.22739 -0.6875,1.5 0,0.32372 -0.53253,1.24251 -0.8125,1.3125 -0.34892,0.0872 -0.67127,0.34254 -0.90625,0.8125 -0.22664,0.45328 -0.73075,0.77406 -1,1.3125 -0.17105,0.34209 -0.71877,0.81572 -0.71875,1.3125 0,0.63169 -0.33407,0.81001 -0.6875,1.28125 -0.16027,0.21369 -0.3886,0.49527 -0.59375,0.75 0,0.22578 0,0.46171 0,0.6875 0,0.56993 -10e-6,1.11757 0,1.6875 0,0.50288 -10e-6,1.02838 0,1.53125 0,0.50288 -10e-6,0.99712 0,1.5 0,0.50288 -10e-6,0.99712 0,1.5 0,0.50288 -10e-6,0.99713 0,1.5 0,0.50288 -10e-6,1.02838 0,1.53125 0,0.50288 -10e-6,0.99712 0,1.5 0,0.50288 -10e-6,0.99713 0,1.5 0,0.52091 -0.002,1.00964 -0.125,1.5 -0.14615,0.58457 -0.34367,0.71858 -0.59375,1.21875 -0.14606,0.29214 -0.59375,0.70245 -0.59375,1.09375 0,0.50288 0,1.02838 0,1.53125 0,0.50287 0,0.99712 0,1.5 0,0.53207 0.03,1.03 0.40625,1.40625 0.31893,0.31893 0.64047,0.69159 1.0625,0.9375 l -0.28125,0.28125 c 0.72264,0.48432 2.69542,0.40625 4.125,0.40625 1.18747,10e-6 2.23759,0.0218 3.09375,-0.40625 1.33489,-0.66745 1.76045,-1.13545 2.6875,-2.0625 0.96563,-0.96563 2.03413,-1.61935 2.875,-2.25 0.86262,-0.64693 1.65625,-1.43587 1.65625,-2.5 -2e-5,-1.13152 0.35588,-2.18052 0.8125,-3.09375 0.56999,-1.13996 1.60472,-1.79388 1.875,-2.875 0.27881,-1.11532 -0.0196,-2.05451 0.40625,-2.90625 0.33808,-0.67611 0.41852,-1.46264 0.65625,-2.1875 0.34908,-0.53525 0.71203,-1.01779 1.03125,-1.65625 0.25395,-0.5079 0.51601,-1.06328 0.78125,-1.59375 l 4.0625,-4.28125 c 0.0729,-1.08818 0.35804,-2.27904 0.8125,-3.5 0.24077,-0.24078 0.47434,-0.47436 0.78125,-0.78125 0.32153,-0.32153 0.82704,-0.65408 1,-1 0.16286,-0.32572 0.55497,-1.05495 0.90625,-1.40625 0.40444,-0.40444 0.75198,-0.9395 1.125,-1.3125 0.29981,-0.29981 0.98217,-0.6325 1.1875,-0.90625 0.32513,-0.43351 0.90196,-0.49574 1.3125,-0.90625 0.40645,-0.40645 0.68878,-0.77258 1.09375,-1.3125 0.35811,-0.47748 0.70537,-1.08038 1.125,-1.5 0.38327,-0.38327 0.89718,-0.49096 1.3125,-0.90625 0.10141,-0.10141 0.25174,-0.36847 0.40625,-0.65625 1.01693,-0.36591 1.99055,-0.54366 2.875,-0.5 l 0.65625,-0.6875 c 0,-0.14693 0,-0.29057 0,-0.4375 -0.13133,0.007 -0.26808,0.0232 -0.40625,0.0313 0.1503,-0.0865 0.28661,-0.2035 0.40625,-0.34375 0,0.10402 0,0.20755 0,0.3125 0.30862,-0.0165 0.58369,-0.0209 0.75,-0.0625 0.96282,-0.24069 1.76355,-0.40625 2.90625,-0.40625 1.25276,-10e-6 2.28645,-0.1823 3.09375,0.625 0.6896,0.68963 1.64568,0.91659 2.6875,1.4375 0.80499,0.4025 1.47116,1.31733 1.84375,2.0625 0.66142,1.32281 1.50762,1.69131 2.6875,2.28125 1.01233,0.50616 1.62193,1.18443 2.28125,1.84375 0.68532,0.68536 1.21017,1.57659 1.65625,2.46875 0.32345,0.6469 1.75651,1.38151 2.25,1.875 1.46718,1.46716 3.20997,2.77248 4.5625,4.125 1.52984,1.52984 3.68493,2.66582 6.1875,3.5 0.26915,0.0897 0.53724,0.14993 0.8125,0.21875 1.8908,0.47269 2.27813,0.81797 3.9375,2.0625 2.72148,2.04112 5.67683,4.9375 9.28125,4.9375 1.99565,-10e-6 4.00437,0 6,0 2.68376,-10e-6 5.34747,0 8.03125,0 1.78919,-10e-6 3.58581,0 5.375,0 1.99786,-10e-6 4.05239,0.1371 6,-0.1875 0.80316,-0.13387 1.60428,-0.30271 2.34375,-0.5 -0.20265,0.28122 -0.45493,0.53367 -0.6875,0.84375 -0.36389,0.48518 -1.26321,1.08889 -1.53125,1.625 -0.22184,0.44368 -0.95629,0.72504 -1.1875,1.1875 -0.30596,0.61192 -1.84197,1.99084 -2.4375,2.4375 -0.74622,0.55967 -1.06601,1.56602 -1.5,2 -0.45934,0.45934 -0.66753,0.88629 -1.09375,1.3125 -0.33965,0.33966 -1.3376,0.70847 -1.625,1.1875 -0.39964,0.66607 -1.04892,0.91033 -1.40625,1.625 -0.31957,0.63913 -0.86296,0.95175 -1,1.5 -0.11426,0.45704 -0.1875,1.16473 -0.1875,1.625 0,0.47059 -0.0919,1.04026 0,1.5 0.10921,0.54606 0.39575,1.08297 0.5,1.5 0.13065,0.52261 0.45139,0.74653 0.6875,1.21875 0.15714,0.31429 0.29831,0.86082 0.625,1.1875 0.21825,0.21825 0.59088,0.52555 0.78125,0.90625 0.22138,0.44276 0.59603,1.07637 0.71875,1.8125 0.099,0.59388 0.20068,1.91944 0.5,2.21875 0.30625,0.30626 0.48854,0.60214 0.6875,1 0.18812,0.37625 0.35743,0.63865 0.71875,1 0.33345,0.33345 0.48009,0.69883 0.8125,1.03125 0.31639,0.31639 0.70873,0.60503 0.90625,1 0.25154,0.50308 0.35312,0.57186 0.78125,1 0.31629,0.31629 0.64852,0.61724 1.03125,1 0.17491,0.17491 0.62275,0.58924 0.78125,0.90625 0.18391,0.36783 0.59435,1.00032 1.03125,1.21875 0.45058,0.2253 0.67243,0.39119 1.09375,0.8125 0.30232,0.30232 0.6832,0.68321 1.09375,1.09375 0.33151,0.33151 0.81417,0.60135 1.3125,1 0.63522,0.50818 1.71291,0.90042 2.3125,1.5 0.5599,0.55989 1.35554,1.01825 2.125,1.53125 1.09979,0.73319 2.15213,1.58283 3.125,2.3125 0.49754,0.37315 0.78521,0.78205 1.40625,0.90625 0.85207,0.17041 2.48066,0.69942 3.09375,1.3125 0.59333,0.59332 0.38705,-0.23795 0.40625,-0.21875 0.37477,0.37477 0.68543,0.71169 1.40625,1 1.04911,0.41965 2.33385,1.12856 3.4375,1.3125 1.12249,0.18708 2.0886,0.89794 3.125,1.3125 0.78924,0.3157 1.43122,1.02375 2.40625,1.21875 0.94799,0.1896 2.23207,0.63299 3,1.09375 0.72515,0.43509 1.94509,0.90625 2.8125,0.90625 0.067,0 0.153,-0.0131 0.21875,0 1.19006,0.23801 2.38325,0.40625 3.625,0.40625 1.1735,0 2.3266,0 3.5,0 1.2737,0 2.5698,0 3.8438,0 1.475,0 2.9311,0 4.4062,0 0.7708,0 1.5413,0 2.3125,0 0.7291,0 1.5273,-0.0937 2.2188,-0.0937 0.5363,0 1.0886,0 1.625,0 0.6369,0 1.2693,0 1.9062,0 0.5362,0 1.0574,0 1.5938,0 0.4097,0 0.7824,-0.0976 1.1562,-0.1875 0.04,0.25564 0.091,0.51917 0.1563,0.78125 0.3292,1.31726 0.6897,2.16064 1.3125,3.40625 0.7404,1.48076 1.8455,3.46062 2.8125,4.75 0.96,1.28003 1.6088,3.02718 2.9063,4 1.3623,1.02172 3.1134,2.32991 4.75,3.03125 2.0231,0.8671 4.4893,1.23951 6.625,2.09375 1.1976,0.47903 2.4209,0.51152 3.625,0.8125 0.3467,0.0867 0.7212,0.14432 1.0937,0.1875 -0.741,0.34932 -1.2394,0.59375 -1.2812,0.59375 -0.31,-0.12398 -1.2476,-0.49899 -0.9375,-0.375 0.4829,0.19316 0.93,1.86748 2.0312,2.96875 0.7037,0.70372 1.6174,1.63493 2.4375,2.25 1.2186,0.91405 2.6957,1.94584 3.7188,2.96875 0.8728,0.8728 2.1683,1.74279 2.5937,2.59375 0.355,0.71018 0.701,1.45116 1.3125,2.0625 0.5447,0.54484 0.6124,1.36252 1.2813,2.03125 0.7263,0.72628 0.4703,1.09961 0.75,2.21875 0.2317,0.9268 0.383,1.72856 0.5625,2.625 0.2266,1.13314 0.4942,1.75906 0.75,2.78125 0.2438,0.97551 0.1891,1.66473 0.375,2.59375 0.1561,0.78017 0.9062,2.37727 0.9062,3 0,1.40998 0.75,1.72241 0.75,2.96875 0,0.92989 0,1.85136 0,2.78125 0,0.92989 0,1.85135 0,2.78125 0,0.92989 0,1.88262 0,2.8125 0,1.05609 -0.08,2.43423 -0.625,3.34375 1.2035,0.4069 2.7816,2.78125 3.7813,2.78125 2.0947,0 -1.9995,3.42406 -3.9063,4.65625 0,1.27832 -0.254,1.85951 -0.5312,2.96875 -0.1954,0.78131 -0.8215,2.00224 -1.6875,2.21875 -0.1985,0.0496 -2.2078,0.54055 -2.4063,0.9375 -0.4818,0.96343 -0.2845,1.80548 -1.3125,2.0625 -0.9206,0.23017 -1.8106,0.47601 -2.7812,0.71875 -0.9028,0.22566 -1.5225,0.33374 -2.4375,0.5625 -0.7315,0.18287 -1.5719,0.39562 -2.4063,0.5625 -0.9955,0.1991 -1.6873,0.38274 -2.4062,0.5625 -0.9003,0.22507 -1.7476,0.56249 -2.8125,0.5625 -1.1801,0 -2.4666,0.1875 -3.5313,0.1875 -0.93,0 -1.8515,0 -2.7812,0 -1.1653,0 -2.1999,0.13587 -3.1563,0.375 -0.9832,0.2458 -1.8308,0.375 -2.9687,0.375 -1.3018,0 -2.6045,0 -3.9063,0 -1.55,0 -3.1065,0 -4.6563,0 -1.4869,0 -1.546,0.66361 -2.7813,1.28125 -0.4199,0.20996 -1.7406,0.75 -2.25,0.75 -1.6846,0 -2.9416,0.1875 -4.4687,0.1875 -1.2036,0 -2.3889,-0.041 -3.5313,0.1875 -0.8995,0.1799 -1.6588,0.70375 -2.5937,0.9375 -0.9203,0.23004 -1.9004,0.84079 -2.7813,1.28125 -0.877,0.4385 -1.75048,0.31277 -2.62495,0.75 -0.65546,0.32773 -0.87706,0.88333 -1.84375,1.125 -0.74849,0.18712 -1.8279,0.35912 -2.40625,0.9375 -0.63221,0.6322 -0.72321,1.1808 -1.875,1.46875 -0.59897,0.14974 -2.03124,-0.04 -2.03125,0.9375 0,1.01426 0.17122,1.73106 0.34375,2.59375 0.26456,1.32278 0.36141,1.60691 1.125,2.625 0.71693,0.95591 3.05914,2.72433 4.28125,2.96875 1.23781,0.24757 2.48198,1.07512 3.9062,1.3125 1.0589,0.17649 2.5291,0.71875 3.9063,0.71875 1.3637,0 2.7298,0 4.0937,0 1.5586,0 2.2639,-0.19876 3.7188,-0.5625 1.2515,-0.31289 2.2512,-0.27435 3.3437,-1.09375 0.5362,-0.40216 2.7497,-2.625 3.5313,-2.625 1.1487,0 2.2245,-0.34375 3.5312,-0.34375 1.1739,0 2.4031,0.1875 3.5314,0.1875 1.0616,0 3.3437,-0.0473 3.3437,1.09375 0,1.17572 -0.3379,1.49404 -1.0937,2.25 -0.8102,0.81009 -0.8359,1.26522 -1.3125,2.21875 -0.3785,0.75689 -1.202,1.24757 -1.6875,2.21875 -0.4394,0.87873 -0.9111,1.70657 -1.0938,2.4375 -0.2138,0.85487 -0.1905,1.85561 -0.3751,2.59375 -0.1899,0.75947 -0.375,1.55743 -0.375,2.59375 0,0.905194 0.012,1.827032 -0.1875,2.625 -0.2732,1.093033 -0.7495,1.468279 -1.5,2.21875 -0.6847,0.684669 -0.1959,1.914641 -0.7187,2.4375 -0.8505,0.850292 -0.055,1.579045 -0.5625,2.59375 -0.3956,0.791084 -0.8309,1.326557 -1.5,2.21875 -0.5602,0.746776 -0.9375,1.281478 -0.9375,2.4375 -10e-5,0.991884 0,1.976864 0,2.96875 -10e-5,0.962678 0.5081,1.789387 1.125,2.40625 0.8807,0.880816 0.9969,1.124997 2.5937,1.125 0.9299,0 1.8826,-3e-6 2.8126,0 1.3659,0 1.8876,0.143646 2.7813,-0.75 0.2683,-0.268265 1.8653,-2.130403 2.2187,-2.21875 0.855,-0.213765 2.3704,-0.187502 3.5313,-0.1875 1.2965,0 1.9792,-0.291768 2.8125,-1.125 0.7174,-0.717357 1.1643,-1.500373 1.8437,-2.40625 0.7262,-0.968258 0.8795,-1.643269 1.125,-2.625 0.2974,-1.189983 0.8813,-2.556689 1.125,-3.53125 0.2457,-0.983214 0.8755,-2.177741 1.4688,-2.96875 0.5545,-0.739516 1.0192,-2.113196 1.6875,-2.78125 0.6607,-0.66074 1.0362,-1.254927 1.8437,-2.0625 0.7406,-0.74061 1.2266,-1.02545 2.25,-1.28125 0.4929,-0.12324 1.8385,-0.55726 2.2188,-0.9375 0.3945,-0.39447 1.3954,-1.33328 2.0625,-1.5 0.684,-0.17101 1.5031,-0.30546 2.4062,-0.53125 0.7772,-0.19432 2.1086,-0.32007 2.9688,-0.75 0.9149,-0.45745 1.8652,-1.59913 2.9687,-1.875 0.7173,-0.17936 1.4785,-0.51024 2.4375,-0.75 0.9738,-0.24348 1.8475,-1.28219 2.5938,-1.46875 1.099,-0.27478 1.5781,-0.61713 2.5937,-1.125 0.6264,-0.31317 1.4512,-1.30034 2.25,-1.5 0.7681,-0.19205 2.0733,0.0101 2.7813,-0.34375 1.031,-0.51551 1.983,-0.84317 3.1562,-1.3125 0.6184,-0.24736 2.1429,-1.125 3.1563,-1.125 1.2437,0 1.9336,-0.10842 3,-0.375 1.0534,-0.26335 3.4127,-0.37333 4.0937,-1.28125 0.4549,-0.60666 0.8965,-1.67786 1.4688,-2.25 0.6839,-0.68393 1.2891,-1.37583 1.5,-2.21875 0.2119,-0.84757 0.5474,-2.00152 0.9375,-2.78125 0.3877,-0.77533 0.7187,-1.87282 0.7187,-3.1875 0,-1.61181 0,-3.20068 0,-4.8125 0,-1.61181 0,-3.23194 0,-4.84375 0,-2.04576 0,-4.11049 0,-6.15625 0,-2.07357 -0.028,-4.10929 0.375,-6.125 0.3162,-1.58187 0.3735,-3.1534 1.125,-4.65625 0.7011,-1.40242 1.2002,-2.78285 1.5,-4.28125 0.2345,-1.17283 0.9847,-2.13442 1.4688,-3.34375 0.7832,-1.95835 2.1995,-3.85582 3.5312,-5.1875 0.9375,-0.93762 2.5352,-1.97181 3.9063,-3 2.0147,-1.51098 4.1001,-2.94259 5.9687,-4.4375 1.6753,-1.34026 3.584,-3.01926 4.375,-4.09375 2.9679,-1.18077 6.0867,-3.45491 7.1563,-5.59375 0.9447,-1.88947 2.0733,-3.48083 2.5937,-5.5625 0.277,-1.10775 0.8572,-3.45081 0.375,-4.65625 -0.078,-0.19373 -0.1426,-0.37478 -0.2187,-0.5625 0.3681,-0.0971 0.751,-0.21927 1.125,-0.40625 0.8181,-0.40909 1.802,-0.93053 2.2187,-1.625 0.4811,-0.802 1.1425,-1.51239 1.5,-2.40625 0.6769,-1.69243 1.7582,-3.29125 2.125,-5.125 0.3861,-1.93099 0.7123,-3.94318 1.1875,-5.84375 0.2935,-1.17437 0.4265,-2.33216 0.7188,-3.5 0.4695,-1.8784 0.6872,-4.41202 0.6875,-6.34375 0,-1.57552 0.2187,-3.17331 0.2187,-4.71875 0,-2.28014 -0.3535,-4.92052 0.094,-7.15625 0.1786,-0.89309 0.094,-1.88388 0.094,-2.8125 0,-2.75365 -1.9611,-5.38311 -2.8125,-7.9375 -1.1704,-3.51115 -3.5819,-6.73821 -6.2187,-9.375 -0.034,-0.0335 -0.091,-0.0602 -0.125,-0.0937 -0.5324,-0.42582 -0.4618,-0.40626 -1,-0.40625 -0.5699,0 -1.1176,-1e-5 -1.6875,0 -0.7222,0 -1.8174,-0.37734 -2.4375,-0.6875 -0.805,-0.40247 -1.5024,-0.58479 -2.3125,-1.125 -2.0333,-1.35545 -4.1538,-2.23308 -6.3125,-3.3125 -1.6977,-0.84887 -4.2055,-2.44102 -6.0625,-2.8125 -1.8179,-0.36357 -4.1502,-1.29376 -5.8125,-2.125 -1.8532,-0.92657 -3.9479,-1.05411 -5.8438,-1.8125 -1.4911,-0.59641 -3.4556,-0.82159 -4.8125,-1.5 -1.0473,-0.52367 -2.1196,-0.56027 -3.2187,-1 -0.1676,-0.067 -0.3386,-0.10678 -0.5,-0.1875 -1.0293,-0.51467 -2.6676,-1.31251 -3.8438,-1.3125 -0.7262,0 -1.2296,-0.40625 -2,-0.40625 -0.7946,0 -1.3596,-0.30868 -2.125,-0.5 -0.5873,-0.14683 -1.5298,-0.31251 -2.0937,-0.3125 -0.7108,0 -1.4597,-0.0937 -2.2188,-0.0937 -0.199,0 -0.4242,-0.0168 -0.6562,-0.0313 -0.014,-0.14104 -0.019,-0.2865 -0.063,-0.375 -0.2044,-0.40876 -1.0325,-1.09375 -1.5938,-1.09375 -0.7096,0 -1.6476,-0.14624 -2.3125,-0.3125 -1.1978,-0.29944 -2.3716,-1.18581 -3.4375,-1.71875 -0.5256,-0.26282 -1.2067,-0.48629 -1.9062,-0.90625 -1.085,-0.65094 -2.0905,-0.48271 -3.125,-1 -0.9361,-0.46805 -1.8683,-0.84024 -2.8125,-1.3125 -0.7917,-0.39586 -1.9174,-0.87944 -3,-1.3125 -1.297,-0.5188 -2.2723,-1.27764 -4.5313,-1.78125 0.2155,-0.3138 -0.5963,-1.28183 -1.2187,-1.4375 -0.5543,-0.13857 -1.6039,0.0111 -1.9063,-0.59375 -0.4085,-0.81667 -0.9392,-0.93871 -1.6875,-1.5 -0.9112,-0.68329 -1.9832,-0.97595 -3.0312,-1.5 -0.7272,-0.3636 -2.3839,-1.71875 -3.125,-1.71875 -0.9093,0 -1.2388,-0.59872 -2.0938,-0.8125 -0.7727,-0.19314 -1.6891,-0.12351 -2.3125,0.5 -0.7721,0.77213 -0.7431,-0.44962 -1.3125,-0.0937 -1.0797,0.67475 -0.349,0.1292 -0.9062,-0.0937 -1.59,-0.63595 -3.2983,-1.05393 -4.7188,-1.90625 -1.0522,-0.63125 -2.5052,-1.00125 -3.7501,-1.3125 -0.3755,-0.0939 -0.7928,-0.0946 -1.2187,-0.0937 1.7719,-0.8528 3.551,-1.71301 5.3126,-2.59375 2.9383,-1.46917 2.9872,-2.67017 2.4687,-5.78125 -0.4258,-2.55478 -2.4599,-4.95976 -4.125,-6.625 -2.4034,-2.40325 -4.9795,-6.59075 -6.5938,-9.28125 -0.7932,-1.32099 -1.6946,-2.87682 -2.2813,-4.34375 -0.1054,-0.26344 -0.15,-0.53724 -0.2187,-0.8125 -0.4884,-1.95114 -0.9424,-4.10911 -1.4375,-6.1875 0.1822,-0.73085 0.2187,-2.04995 0.2187,-3.09375 0,-1.15624 -0.093,-2.59728 0.1875,-3.71875 0.069,-0.27526 0.1631,-0.56552 0.2188,-0.84375 0.2744,-1.37429 0.5326,-3.0058 0.8125,-4.125 0.1975,-0.79193 0.192,-1.89361 0.4375,-2.875 0.2205,-0.88386 0.4062,-2.35622 0.4062,-3.3125 0,-2.20208 0,-4.39166 0,-6.59375 0,-2.75259 0,-5.52864 0,-8.28125 0,-2.7526 0,-5.49741 0,-8.25 0,-2.04465 -0.3621,-4.47937 -0.8437,-6.40625 -0.4305,-1.71968 -1.0487,-3.75365 -1.8438,-5.34375 -0.9645,-1.929 -1.7516,-4.10353 -3.0937,-5.78125 -1.6157,-2.01886 -2.6091,-4.48401 -4.3438,-6.21875 -1.0896,-1.08956 -2.7678,-3.22312 -3.3125,-4.3125 -0.92,-1.83996 -2.74597,-3.0838 -3.49995,-4.96875 -0.56856,-1.4214 -2.0315,-1.7345 -3.5,-2.46875 -1.5753,-0.78765 -3.36944,-1.26927 -4.96875,-2.46875 -1.85171,-1.38879 -4.18511,-2.56011 -5.78125,-4.15625 -0.76938,-0.76937 -4.06694,-0.54465 -3.09375,-1.03125 2.96763,-1.48382 2.19024,-0.71598 0.84375,-2.0625 -0.86934,-0.86934 -1.93299,-1.74095 -2.5,-2.875 -0.43975,-0.87951 -0.93719,-1.15514 -1.21875,-2.28125 -0.0854,-0.34151 -0.81526,-2.36006 -1.25,-2.46875 -0.43038,-0.1076 -0.97683,-0.22083 -1.53125,-0.25 z m 83.6875,275.5625 c 0,-2.4392 -0.3816,-0.93657 -0.9062,0.375 -0.08,0.19992 0.3219,0.003 0.9062,-0.375 z M 854.40625,-271.6875 c 0,-0.2771 0,-0.56665 0,-0.84375 l -0.71875,1.625 c 0.19048,-0.12088 0.4466,-0.44333 0.71875,-0.78125 z m 35.8125,-18 c 0.029,-0.003 0.0636,0.002 0.0937,0 -0.19803,0.0994 -0.39308,0.18276 -0.59375,0.28125 0.0681,-0.0975 0.13175,-0.19087 0.1875,-0.21875 0.0896,-0.0448 0.19549,-0.0511 0.3125,-0.0625 z m -13.3125,14.375 c -0.0384,0.0773 -0.0863,0.14143 -0.125,0.21875 -0.29569,0.59137 -0.76368,1.34444 -1.3125,1.9375 0.11145,-0.30711 0.21159,-0.60502 0.34375,-0.78125 0.38288,-0.51051 0.5835,-0.89603 1,-1.3125 0.0205,-0.0205 0.0705,-0.0399 0.0937,-0.0625 z m 36.03125,2.21875 c -0.60464,-0.0185 -1.22019,0.0625 -1.8125,0.0625 -0.66716,0 -1.48572,0.40625 -1.90625,0.40625 -0.60462,0 -0.90665,0.0937 -1.53125,0.0937 -0.64133,0 -1.31236,-0.0547 -1.90625,0.0937 -0.55087,0.13772 -1.30518,0.0589 -1.8125,0.3125 -0.42764,0.21382 -1.05222,0.45837 -1.59375,0.59375 -0.46081,0.1152 -1.01129,0.125 -1.53125,0.125 -0.50288,0 -0.99715,0 -1.5,0 -0.50288,0 -0.99712,0 -1.5,0 -0.47059,0 -1.04023,-0.0919 -1.5,0 -0.47755,0.0955 -1.04264,-0.0284 -1.53125,0.0937 -0.43523,0.10881 -0.87811,0.2039 -1.3125,0.3125 -0.37856,0.0946 -0.8181,0.25923 -1.28125,0.375 -0.40113,0.10029 -0.86296,0.20013 -1.3125,0.3125 -0.46286,0.11572 -0.67927,0.36513 -1.21875,0.5 -0.40169,0.10042 -0.8557,0.24038 -1.1875,0.40625 -0.56679,0.2834 -1.41655,0.53731 -1.625,0.8125 l 0.53125,-0.1875 c -0.43106,0.20453 -0.84376,0.44598 -0.84375,0.6875 0,0.067 0.03,0.12754 0,0.1875 -0.18122,0.36244 -0.44333,0.76819 -0.78125,1.21875 -0.32229,0.42972 -0.64997,0.83746 -1.03125,1.21875 -0.36126,0.36125 -0.63019,0.63022 -1,1 -0.36562,0.36561 -0.34009,0.84012 -0.6875,1.1875 -0.37134,0.37134 -0.71877,0.67396 -0.71875,1.3125 0,0.71636 -0.45559,0.57227 -0.59375,1.125 -0.12562,0.50247 -0.21875,0.94503 -0.21875,1.5 0,0.47059 0.0919,1.04027 0,1.5 -0.0947,0.47374 0.0189,1.21226 -0.1875,1.625 -0.20784,0.41568 -0.49999,0.87844 -0.5,1.5 0,0.50288 10e-6,0.99712 0,1.5 0,0.50288 10e-6,0.99712 0,1.5 0,0.70641 -0.0937,1.45443 -0.0937,2.125 0,0.58912 -0.0914,0.9906 -0.21875,1.5 -0.0835,0.33394 -0.28124,1.17051 -0.28125,1.40625 0,0.61214 -0.36293,0.67045 -0.5,1.21875 -0.11937,0.47747 -0.21874,0.97134 -0.21875,1.5 0,0.49029 0.11764,1.1545 0,1.625 -0.12995,0.51982 -0.0937,1.04216 -0.0937,1.59375 0,0.56993 3e-5,1.14883 0,1.71875 0,0.53641 3e-5,1.08858 0,1.625 0,0.70403 3e-5,1.38971 0,2.09375 0,0.5364 3e-5,1.0886 0,1.625 0,0.63698 3e-5,1.26927 0,1.90625 0,0.56993 3e-5,1.11757 0,1.6875 0,0.60346 3e-5,1.20904 0,1.8125 0,0.50287 3e-5,1.02837 0,1.53125 0,0.50288 3e-5,0.99712 0,1.5 0,0.50288 3e-5,0.99713 0,1.5 0,0.50288 3e-5,0.99712 0,1.5 0,0.53554 0.0938,1.11471 0.0937,1.625 0,0.56993 10e-6,1.14882 0,1.71875 0,0.53641 10e-6,1.05734 0,1.59375 0,0.52069 0.0937,1.17336 0.0937,1.625 0,0.50288 0,0.99712 0,1.5 0,0.61883 -0.0109,1.04081 0.21875,1.5 0.31955,0.6391 0.79185,1.01062 1.3125,1.53125 0.26029,0.26029 0.95984,0.69649 1.1875,1 0.31464,0.41952 0.69132,0.58842 1,1 0.29795,0.39725 0.64321,0.70571 1.03125,1.09375 0.24567,0.24567 0.73591,0.64219 1.09375,1 0.37111,0.37112 0.58941,0.58941 0.90625,0.90625 0.31548,0.31549 0.61488,0.64611 1,1.03125 0.38675,0.38675 0.57825,0.57827 1,1 0.28943,0.28942 0.72523,0.50648 1.125,0.90625 0.41992,0.41992 0.94132,0.8144 1.5,1.09375 0.75264,0.37633 1.25066,0.8208 1.90625,1.3125 0.24267,0.182 1.70189,1.09375 2.03125,1.09375 0.50288,0 0.99714,0 1.5,0 0.70403,0 1.38971,0 2.09375,0 0.71296,0 1.91855,-0.007 2.53125,-0.375 0.60225,-0.36135 2.02492,-1.04987 2.3125,-1.625 0.23711,-0.47422 0.50001,-0.84712 0.5,-1.59375 0,-1.07281 10e-6,-2.14595 0,-3.21875 0,-0.96769 -0.0937,-1.99616 -0.0937,-2.9375 0,-1.16955 -0.39551,-1.88474 -0.90625,-2.90625 -0.65112,-1.30224 -1.56883,-2.43552 -2.53125,-3.71875 -0.40706,-0.54276 -0.93055,-0.28468 -1.1875,-1.3125 -0.28202,-1.12808 0.0329,-3.46545 -0.5,-4.53125 -0.41713,-0.83426 -0.69105,-1.28479 -1.3125,-1.90625 -0.21023,-0.21023 -1.36381,-1.04017 -1.5,-1.3125 -0.16799,-0.33599 -0.96938,-1.69578 -1.125,-1.8125 -0.43079,-0.32309 -0.5,-0.66239 -0.5,-1.3125 0,-0.50288 0,-0.99712 0,-1.5 0,-0.53641 0,-1.05735 0,-1.59375 0,-0.50288 0,-1.02837 0,-1.53125 0,-0.54636 0.0937,-0.95328 0.0937,-1.5 0,-0.53713 0.21872,-0.88825 0.21875,-1.3125 0,-0.56993 -3e-5,-1.11758 0,-1.6875 0,-0.53566 -0.028,-0.95059 0.0937,-1.4375 0.12545,-0.50179 0.30503,-0.87646 0.40625,-1.28125 0.11686,-0.46746 0.18752,-1.02478 0.1875,-1.53125 0,-0.50288 2e-5,-0.99713 0,-1.5 0,-0.5372 0.26723,-0.85023 0.40625,-1.40625 0.1092,-0.43681 0.17354,-1.18973 0.5,-1.625 0.22858,-0.30477 0.88015,-0.63528 1,-0.875 0.16409,-0.32818 0.70781,-0.70627 0.8125,-1.125 0.13862,-0.55451 0.28198,-0.65771 0.5,-1.09375 0.20649,-0.41297 0.49629,-0.80377 0.90625,-0.90625 0.55474,-0.13868 0.94377,-0.49625 1.5,-0.71875 0.56699,-0.22679 1.07093,-0.28125 1.71875,-0.28125 0.53641,0 1.08857,0 1.625,0 0.77108,0 1.5414,0 2.3125,0 1.13986,0 2.2664,0 3.40625,0 0.70403,0 1.42095,0 2.125,0 1.12862,0 2.39669,0.18389 3.5,0 1.73831,-0.28972 3.53091,-0.32133 5.25,-0.8125 1.26907,-0.36259 2.28396,-0.87773 3.21875,-1.8125 0.81119,-0.81119 1.56425,-1.49246 2.1875,-2.53125 0.51104,-0.85172 0.71875,-1.91587 0.71875,-2.90625 0,-1.27063 0.0897,-2.54715 -0.71875,-3.625 -0.77921,-1.03896 -1.58014,-2.29894 -2.59375,-3.3125 -0.7884,-0.7884 -1.58082,-1.09964 -2.40625,-1.71875 -0.73601,-0.55201 -1.10877,-0.97877 -2.03125,-1.59375 -0.91858,-0.61239 -1.43926,-1.92276 -2.21875,-2.3125 -1.14668,-0.57334 -2.15669,-1.01048 -3.40625,-1.21875 -0.19707,-0.0328 -0.3922,-0.0563 -0.59375,-0.0625 z"
           id="path3256"
           inkscape:connector-curvature="0" />
        <path
           style="fill:#d8cab1"
           d="m 975.90625,-421.03125 c -0.0821,-1.2e-4 -0.16893,0.009 -0.25,0.0313 0.58418,4.41331 5.85766,10.32565 2.53125,15.5625 -0.60903,2.15065 -3.18006,8.32593 1.15625,5.9375 8.34007,-1.93947 13.84223,7.16643 19,12.0625 6.84675,6.36111 7.95425,16.22963 5.65625,24.875 -1.3559,6.74469 -2.9716,13.74386 -1.5625,20.4375 -2.014,5.27223 -4.18273,11.76898 -0.3437,16.78125 0.5459,2.43147 0.9191,4.26364 2.5312,6.09375 0.1212,3.36733 2.9073,5.64682 3.4063,9.0625 5.1522,6.82723 5.8836,16.04808 12.4062,22.03125 2.0964,3.35348 4.43,6.4495 8.7813,6.75 6.546,1.03327 14.02,1.09101 18.9375,6.0625 9.3737,2.57657 18.1777,7.42521 27.9375,8.40625 10.3516,2.42808 20.1242,7.02259 27.8125,14.4375 7.3535,5.38803 18.0076,7.94571 20.8437,17.6875 5.4653,17.27147 -3.4206,35.57094 -15.125,47.96875 -2.8408,4.03732 -9.5411,7.51824 -13.25,2.5625 -1.5318,-1.37598 -1.5754,-4.91419 -4.25,-2.96875 -5.9379,0.32825 -4.8182,7.29839 -5.8437,11.40625 -1.5764,4.70894 -4.0379,9.1209 -3.5,14.34375 -0.4081,10.05388 0.8444,19.97785 3.5,29.5625 0.438,10.16549 -11.0524,14.34991 -18.5,18.28125 -7.2677,3.64691 -13.5344,8.44081 -21.4375,10.71875 -4.7296,2.17154 -8.5629,6.338822 -9.0938,11.5 -2.4076,6.475434 -9.747,10.716846 -16.4375,9.34375 -3.8414,-3.392077 1.5264,-8.125366 2.4063,-11.8125 3.2303,-6.23619 0.9322,-16.4314 9.125,-19.25 13.2376,-3.5831 26.1161,-9.6456 37.8125,-17.03125 2.2286,-6.07632 -3.7652,-11.8829 -5.25,-17.53125 -5.0968,-10.97442 -5.027,-23.42336 -8.9063,-34.71875 -4.8237,-9.09305 1.0069,-21.62225 -6.75,-29.5625 -4.2237,-0.76389 -8.5411,2.09654 -13.0312,1.21875 -6.5743,0.28131 -12.1141,-4.21846 -18.625,-3.25 -8.3338,-1.76868 -16.3696,-4.57224 -24.43755,-7.1875 -3.79823,-2.04349 -7.09785,-5.46264 -11.9375,-4.375 -4.76911,-0.0632 -10.53461,-2.69529 -11.46875,-7.40625 -2.79297,0.59251 -5.83149,1.51198 -7.6875,-1.46875 -3.55832,-4.37074 -8.08399,-8.71418 -9.28125,-14.375 3.7048,-4.98622 11.61853,-4.85217 15.59375,-9.90625 2.62035,-3.92376 10.32584,-1.93752 10.1875,-7.6875 -2.71133,-1.82249 -1.87679,-5.23584 -2.28125,-7.8125 -4.0065,-2.31949 -6.95801,3.53745 -11.1875,2.90625 -21.23827,2.35814 -43.93924,-3.25027 -60.15625,-17.1875 -2.1079,-4.15266 -8.23057,-3.0074 -12.25,-3.4375 -6.29045,1.2249 -9.99198,8.22295 -14.1875,12.5625 -6.09554,7.07895 -11.15325,14.91127 -16.21875,22.65625 -1.91877,2.91115 -6.40535,5.11518 -6.9375,5.65625 0.40001,-7.85282 -0.78095,-16.33561 0.5625,-23.8125 9.71786,-9.31498 17.23526,-20.50771 25.5,-31.09375 1.5884,-4.86496 5.8319,-10.28128 11.53125,-9.375 8.11015,4.20716 16.38689,8.35447 25.0625,11.46875 6.08393,2.03616 10.9371,6.70761 16.625,9.15625 8.27005,-4.07943 8.00889,-15.14772 11.40625,-22.71875 2.28946,-10.1768 7.422,-19.60845 16.03125,-25.65625 7.57232,-6.88014 19.03937,-13.11429 19.53125,-24.5625 -0.65311,-2.63662 -0.58608,-9.13595 -4.78125,-7.5625 -3.14506,1.03759 -6.36888,-1.11663 -9.21875,-0.71875 -3.20135,4.84479 -5.60301,10.45973 -11.09375,13.34375 -11.47032,5.54634 -17.56274,18.78168 -29.71875,23.125 -5.64278,5.79049 -17.83812,1.1005 -16.75,-7.5625 1.28152,-13.08137 14.62881,-20.18061 19.40625,-31.78125 2.52991,-4.52507 3.36169,-12.04978 9.9375,-12.15625 5.95619,-1.32483 9.91526,-7.53064 16.46875,-7.6875 6.1888,-1.55349 9.83802,-6.81089 12.75,-11.96875 2.28667,-2.87116 4.08211,-6.86563 5.5,-9.6875 -3.40786,2.99581 -4.21521,9.86931 -10.09375,9.4375 -3.39776,-1.23605 -7.03237,-1.43785 -9.84375,1.375 -7.35815,5.64245 -13.77067,12.4487 -20.78125,18.4375 -3.46079,5.96759 -3.26045,13.48891 -8.5625,18.4375 -4.66448,8.14557 -13.69087,13.76259 -15.40625,23.59375 -2.68536,6.92555 4.1613,12.62767 9.625,15.40625 5.2405,1.63496 13.54598,5.02567 17.09375,-1.40625 4.51932,-7.99861 13.96723,-11.35095 22.53125,-12.625 0.53447,-0.73075 1.71314,-1.25 3.0625,-1.25 1.85489,-10e-6 3.34375,0.97586 3.34375,2.15625 2e-5,1.18039 -1.48886,2.125 -3.34375,2.125 -0.26753,0 -0.53173,-0.0249 -0.78125,-0.0625 -0.74811,2.26415 -4.11586,4.78131 -5.34375,6.25 -9.44089,8.48025 -9.38348,22.44606 -14.46875,33.34375 -1.18091,4.35689 -5.14659,10.96215 -10.40625,7.46875 -10.66813,-8.50469 -24.67501,-10.71629 -36.03125,-17.9375 -7.03073,-2.94844 -12.84327,3.944 -15.21875,9.90625 -7.547,9.6098 -14.66693,19.67209 -23.09375,28.625 -3.90448,3.86286 -3.68936,9.49018 -1.9375,14.3125 0.78136,5.54129 -5.04993,10.777 -0.375,15.65625 2.66916,3.51961 3.58279,10.47146 8.46875,11.4375 8.39443,-2.55743 12.46882,-12.80399 11.84375,-21.03125 -2.86129,-3.87893 -3.0394,-9.10867 -0.0937,-13.0625 5.2989,-7.39392 9.68318,-17.56127 18.90625,-20.5625 6.97391,-0.78119 12.36513,5.32298 15.75,10.75 1.2574,0.21204 2.21875,1.42246 2.21875,2.875 2e-5,1.51415 -1.03962,2.74313 -2.375,2.875 -1.78573,1.79938 -5.17456,2.54338 -7.625,2.09375 -6.19994,-0.94211 -14.49226,-0.99605 -17.1875,5.96875 -6.30625,15.81945 -4.51178,33.45665 -5.03125,50.1875 -0.68102,7.25066 7.90107,8.38874 11.53125,13.03125 3.53169,3.11183 5.00714,9.45591 10.96875,7.625 4.69715,-0.55683 10.81651,1.64245 14.8125,-1.28125 0.34461,-9.4344 -3.98243,-20.32355 -13.5,-23.875 -6.43149,-1.15311 -7.63938,-6.41182 -8.25,-12.0625 -1.76627,-6.56856 2.5895,-12.63458 4.53125,-18.6875 13.97252,1.28093 28.34715,2.39971 41.09375,8.71875 0.52528,-0.22512 1.26152,-0.34375 2.0625,-0.34375 0.67815,0 1.28701,0.0828 1.78125,0.25 3.67341,-1.37277 8.12307,-3.8913 10.5,-0.34375 6.99658,14.74706 19.88809,25.71937 32.3125,35.84375 17.2007,14.4752 40.1254,17.05994 61.4063,20.84375 5.06,0.70094 9.2311,4.59646 8.8125,9.96875 1.5096,11.63351 2.6709,23.6277 1.8438,35.3125 -3.6399,7.12767 -13.3386,6.19214 -20.125,7.53125 -19.1582,1.85321 -40.81507,1.90367 -55.4376,16.1875 -1.9543,2.51615 -7.10901,5.0366 -5.96875,8.71875 6.03962,6.38315 16.4709,6.12607 24.43755,4.65625 4.9732,-1.49575 7.736,-6.95563 13.1875,-7.59375 1.6571,-0.26987 4.0184,-0.9693 6.0938,-1.3125 0.3759,-0.99249 1.7958,-1.71875 3.5,-1.71875 1.9905,0 3.5937,1.00721 3.5937,2.25 0,1.09415 -1.2484,1.98483 -2.9062,2.1875 -0.5104,10.322025 -4.8792,19.796931 -9.1875,28.9375 -1.7852,3.665062 -3.5146,10.182087 2,11.40625 7.9564,2.455413 18.5518,0.114932 23.5,-6.875 0.2531,-3.851974 2.0624,-7.317704 3.2812,-10.875 -1.0927,-4.596987 -2.9251,-11.269913 2.6563,-13.90625 10.3843,-4.63826 22.6376,-3.1123 32.7187,-8.5 6.2478,-2.55509 16.3696,-1.64565 18.9375,-9.34375 1.2736,-10.56139 -6.1437,-20.96105 -1.875,-31.5 2.7691,-11.68771 16.016,-15.12556 25.25,-20.15625 12.2723,-6.98438 22.9623,-17.62756 28.1875,-30.96875 6.1042,6.03989 13.9014,14.90986 9.4375,24.0625 -7.5672,14.94074 -25.6524,20.16505 -36.3125,32.375 -6.0923,5.79023 -10.6344,13.53765 -12.5312,21.78125 0,0.01 0,0.0214 0,0.0313 0.17,1.67423 0.25,3.5061 0.25,5.4375 -10e-5,3.29127 -0.2619,6.29684 -0.7188,8.6875 0.4349,2.53367 1.1505,5.03989 2.2188,7.46875 3.753,11.30651 13.465,19.016637 19.5937,28.78125 3.1732,5.228898 -2.4669,10.712708 -2.4687,15.28125 9.0609,-1.39643 14.7121,-11.949079 10.4375,-20.15625 -5.478,-11.1314 -14.6916,-20.991871 -16.0313,-33.75 -0.4255,-4.98372 -0.7326,-11.64159 2.75,-15.5625 -10e-5,-0.0105 0,-0.0207 0,-0.0313 0,-2.11988 1.1533,-3.84375 2.5625,-3.84375 1.4092,0 2.5625,1.72387 2.5625,3.84375 0,1.32492 -0.4459,2.49714 -1.125,3.1875 0.09,2.06344 -0.3535,4.47992 -0.2812,6 -1.0747,15.57385 11.3841,26.620178 21.3437,36.71875 5.2445,5.675874 10.1275,13.04724 10.7813,20.4375 6.6121,-6.080822 4.2542,-17.518015 0.2812,-24.6875 -4.1865,-9.012323 -15.0328,-14.110451 -17.1875,-24 -1.2943,-0.5084 -2.2187,-1.73641 -2.2187,-3.1875 0,-1.90307 1.592,-3.46875 3.5312,-3.46875 1.9392,0 3.5,1.56568 3.5,3.46875 0,0.19499 -0.031,0.37632 -0.063,0.5625 1.6333,0.50632 3.3373,1.40884 4.5625,1.78125 4.318,0.75576 10.0097,1.91877 13.6563,-1.125 -6.1434,-1.91022 -14.2276,-4.83099 -14.3438,-12.59375 0.3572,-7.05206 8.1057,-10.90991 12.5313,-15.46875 10.6161,-8.95403 26.0554,-17.33049 26.3125,-33.0625 1.7729,-12.77487 -5.0433,-24.96564 -15.5,-32.03125 -7.1623,-6.27523 -16.5533,-9.2903 -23.4375,-15.65625 -1.6219,-4.87736 -2.0459,-10.37535 -5.0313,-14.875 -7.5798,-14.84009 -19.8263,-29.38974 -37.3437,-31.4375 -20.3009,-3.11915 -42.6022,-2.10017 -60.25,-14.03125 -3.5209,-2.98773 -10.6049,-5.47495 -9.9375,-11.0625 0.2244,-2.04806 3.826,-2.61524 3.8437,-3.71875 -5.4837,-2.35095 -6.6825,-8.25432 -7.2812,-13.59375 -0.4051,-1.70455 -1.0868,-3.60661 -1.375,-5.46875 -0.9519,-0.29937 -1.6563,-1.06349 -1.6563,-2 0,-1.06194 0.8782,-1.94429 2.0313,-2.125 0.3169,-0.70954 0.7828,-1.36656 1.5,-1.96875 -7.1541,-3.98099 -14.0506,-11.53002 -11.4375,-20.375 0.6401,-4.92008 4.6249,-8.39446 3.4687,-13.65625 0.4286,-8.5996 -0.9155,-18.71958 1.6875,-26.46875 -8.1085,-2.72346 -6.544,-13.5577 -13.2188,-18.03125 -1.5365,-1.7727 -2.0345,-4.3933 -4.9375,-3.65625 -5.5691,-0.80236 -7.0448,-8.26917 -12.8438,-8.6875 -6.64513,-1.72051 -14.63644,1.94307 -20.06245,-3.65625 -3.15676,-0.52522 -3.95732,-3.66482 -5.3125,-5.90625 -0.22995,-0.072 -0.47255,-0.15589 -0.71875,-0.15625 z m -63.1875,148 0.6875,0.71875 0.0937,0.0937 c 2.37329,3.91942 9.30141,6.36642 8.71875,11.59375 -3.39279,4.30558 -10.53623,2.53918 -15.25,4.53125 -6.75687,0.72157 -12.7781,5.38901 -12.84375,12.46875 -0.67636,6.90127 -1.75915,14.38328 -0.84375,21.09375 3.38422,5.38418 10.49425,12.7411 5.90625,19.34375 -4.97821,3.65918 -10.54225,-2.5548 -14.4375,-5.21875 -6.53036,-3.894 -3.63718,-12.85264 -4.40625,-19.09375 -0.57112,-10.74388 3.09812,-21.05838 2,-31.71875 0.50244,-8.15579 9.11896,-13.5888 16.84375,-11.59375 4.69969,0.14471 8.98726,-1.04874 13.53125,-2.21875 z m 150.00005,128.4375 c 1.4574,-1e-5 2.625,1.42897 2.625,3.1875 -1e-4,0.47637 -0.063,0.90654 -0.2188,1.3125 0.8555,1.87368 0.243,4.98057 2.3438,5.875 0.7565,4.5426 -5.7503,5.78673 -8.8438,7.40625 -2.9818,1.51706 -5.9861,-1.16686 -8.75,1.46875 -3.4289,0.63798 -4.5718,4.1277 -7.4687,5.15625 -2.1201,-0.31366 -3.4013,-0.65731 -5.2188,0.59375 -2.9451,0.43054 -2.9332,-3.98725 -6.2187,-2.5 -8.2923,0.40057 -15.7542,4.22691 -22.5313,8.75 -5.144,1.28812 -10.91624,-1.31561 -14.78125,-4.5625 -3.05622,-9.41015 13.12035,-9.59637 19.12505,-11.375 14.8866,-3.12741 30.886,-0.92149 45.125,-6.75 1.8927,-0.68171 1.7615,-2.69336 2.4062,-4.09375 -0.1491,-0.39893 -0.25,-0.81546 -0.25,-1.28125 0,-1.75853 1.1986,-3.1875 2.6563,-3.1875 z"
           id="path2243"
           inkscape:connector-curvature="0" />
        <path
           style="fill:#000000;fill-opacity:1"
           d="m 975.46875,-422.3125 c -1.28249,-0.0539 -2.63103,1.2928 -3.96875,4.03125 -2.6271,5.37788 -5.9869,7.40509 -9.875,5.9375 -4.13802,-1.56193 -6.7929,-0.0543 -16.21875,9.25 -4.18569,4.13171 -8.74391,8.25133 -10.125,9.15625 -2.6816,1.75706 -6.43751,8.94612 -6.4375,12.3125 0,2.55382 -4.79529,9.41488 -12.1875,17.4375 -5.55224,6.02572 -7.07873,9.27937 -8.46875,18.125 -1.0899,6.93583 7.33279,13.81116 18.4375,15.0625 l 6.25,0.6875 6.25,-6.5 c 6.42379,-6.71234 6.98358,-7.01319 22.96875,-11.40625 3.03431,-0.83389 1.97308,0.70735 -5.59375,8.03125 -7.6586,7.41273 -10.69067,13.94762 -15.65625,33.625 -2.48018,9.82839 -5.96747,11.2719 -13.40625,5.59375 -2.4448,-1.86616 -6.40879,-4.09575 -8.78125,-4.96875 -2.37246,-0.87299 -6.84753,-2.52133 -9.96875,-3.65625 -3.12123,-1.13491 -7.37218,-3.19217 -9.4375,-4.59375 -7.89929,-5.36061 -14.10288,-3.43278 -19.65625,6.125 -1.59783,2.75 -4.16584,6.35 -5.6875,8 -1.52166,1.65 -4.22583,5.25 -6.03125,8 -1.80541,2.75 -5.89159,7.7 -9.0625,11 -6.37302,6.63247 -7.80237,10.44406 -5.96875,16 0.94418,2.86089 0.88094,4.43644 -0.46875,8.5 l -1.65625,4.96875 3.59375,7.1875 c 4.49697,8.98893 5.2012,9.84374 8.28125,9.84375 7.51622,0 16.31747,-18.35747 11.71875,-24.4375 -5.26695,-6.96353 14.02628,-33.0938 22.75,-30.8125 2.68215,0.7014 13.99257,12.11987 13.5,13.625 -0.65106,1.98941 -8.02593,3.88815 -14.46875,3.71875 -6.50765,-0.17111 -10.81331,1.7295 -13.59375,7.75 -0.20358,0.17534 -0.41976,0.3777 -0.625,0.625 -0.76114,0.91713 -0.83999,1.49273 -0.25,1.53125 -2.84866,8.1049 -3.75697,22.12434 -3.78125,45.3125 -0.006,6.13071 1.14687,8.19693 5.90625,10.625 2.11243,1.07768 5.06022,3.43837 6.53125,5.25 6.20966,7.6474 5.71536,7.40642 15.25,7.59375 11.41092,0.2242 11.76642,-0.0185 11.0625,-7.78125 -0.66398,-7.32246 -4.67108,-14.68965 -9.25,-17 -12.6429,-6.37914 -15.34519,-13.28038 -9.96875,-25.4375 l 2.5,-5.65625 8.75,0.625 c 12.10474,0.86192 18.90496,2.26596 24.625,5.15625 4.90786,2.47989 9.48958,2.70461 16.65625,0.8125 2.31555,-0.61135 2.93353,-0.0726 6.4375,5.65625 12.1921,19.93374 38.79919,41.05298 57.50005,45.625 9.4941,2.32113 20.6432,4.54384 24,4.78125 16.188,1.14495 19.0744,4.74317 19.5937,24.4375 0.1813,6.875 0.6285,14.44917 0.9688,16.84375 1.2372,8.70748 -2.5482,10.40939 -28.0625,12.6875 -25.3688,2.26511 -26.068,2.43262 -38.12505,8.78125 -6.85127,3.60754 -16.50841,12.57033 -16.15625,15 1.09723,7.56953 25.4985,10.69309 30.8125,3.9375 2.3744,-3.01861 6.9113,-5.22835 10.8438,-5.28125 1.4493,-0.0195 3.75,-0.68274 5.125,-1.46875 3.9961,-2.2844 5.7121,-1.89245 3.2812,0.75 -1.2919,1.40428 -2.2974,4.31729 -2.7187,7.75 -0.3713,3.025 -1.9675,8.19999 -3.5313,11.5 -7.153,15.09477 -8.1112,19.20674 -5.0937,21.9375 7.1781,6.49613 28.0625,0.8191 28.0625,-7.625 0,-1.65375 0.7785,-4.31468 1.7187,-5.90625 1.4361,-2.43107 1.5295,-3.55665 0.5938,-7.0625 -2.1766,-8.15463 1.6916,-10.94558 17.9062,-12.9375 5.4176,-0.66555 11.3705,-2.09411 14.2813,-3.4375 2.75,-1.26921 7.7009,-2.84316 10.9687,-3.5 11.5804,-2.32768 14.0386,-7.52427 10.1875,-21.40625 -4.7355,-17.07009 1.1137,-28.26121 18.0625,-34.53125 13.3791,-4.94945 30.3069,-20.64456 32.6563,-30.28125 0.8987,-3.68636 1.6317,-3.48302 5.4375,1.46875 10.344,13.45882 6.7999,22.13736 -14.875,36.40625 -20.9318,13.77962 -27.1424,22.33827 -28.9375,39.90625 -1.7231,16.86298 -0.023,21.78809 12.1562,35.1875 10.401,11.4435 11.2398,13.62449 7.8438,20.28125 -1.1,2.15618 -2,4.62184 -2,5.46875 0,2.8425 4.6168,1.62806 9.125,-2.375 l 4.375,-3.875 0,-7.40625 c 0,-6.74522 -0.2551,-7.7362 -3.0625,-11.34375 -12.4868,-16.04563 -17.0869,-32.62643 -11.9063,-42.90625 2.9681,-5.88954 4.3546,-5.69703 3.375,0.5 -2.4168,15.28848 1.6442,25.71274 15.1563,38.875 9.9279,9.67088 15.9355,19.02941 15.9375,24.8125 0,5.21308 4.4725,0.66847 5.5,-5.59375 1.8628,-11.3544 0.1021,-16.70111 -8.5938,-25.78125 -7.1289,-7.44391 -12.8457,-16.37536 -12.875,-20.125 -0.014,-1.81207 1.4217,-1.53665 3.4063,0.65625 2.7762,3.06768 6.8059,4.22921 13.6562,3.90625 8.5687,-0.40396 9.4347,-2.81195 1.9063,-5.3125 -3.5548,-1.18071 -6.0793,-2.61136 -7.5938,-4.28125 -0.01,-0.0109 -0.021,-0.0203 -0.031,-0.0313 -0.9765,-1.74202 -1.4847,-3.7217 -1.4688,-5.75 1.0085,-4.25533 5.7737,-9.5879 14.375,-16.25 7.6694,-5.9403 13.6285,-11.62057 17.9063,-17.09375 0.1092,-0.13977 0.2367,-0.26673 0.3437,-0.40625 0.2316,-0.29742 0.4408,-0.57945 0.6563,-0.875 0.2493,-0.33831 0.4825,-0.6631 0.7187,-1 0.048,-0.0715 0.078,-0.14728 0.125,-0.21875 14.1849,-20.44944 4.1214,-38.34248 -30.9062,-58.1875 -2.7734,-1.57127 -3.6562,-2.90408 -4.7813,-7.3125 -4.5955,-18.00736 -20.5819,-36.29533 -35.375,-40.46875 -3.0075,-0.84847 -12.9047,-2.22473 -22,-3.0625 -25.1349,-2.31518 -43.0818,-8.66511 -52.4687,-18.5625 -3.109,-3.27796 -2.721,-4.529 1.9062,-6.375 0.6227,-0.24844 -0.097,-1.46411 -1.625,-2.78125 -3.2217,-2.77797 -4.7812,-6.59137 -4.7812,-11.6875 0,-2.04182 -0.7436,-4.79065 -1.6563,-6.09375 -1.546,-2.20725 -1.546,-2.43203 0,-3.5625 2.4546,-1.79484 2.077,-2.80977 -2.2812,-6.0625 -7.6608,-5.71743 -10.3926,-17.95122 -5.1875,-23.15625 0.2862,-0.28626 0.5227,-0.66864 0.7187,-1.21875 0.01,-0.0141 0.026,-0.0169 0.031,-0.0313 0.2399,-0.3273 0.375,-0.71072 0.375,-1.1875 0,-0.17024 -0.014,-0.33719 -0.031,-0.5 0.3552,-2.30198 0.475,-6.18603 0.5,-13.21875 0.028,-8.03822 0.4322,-15.18351 0.875,-15.875 0.5219,-0.81497 -0.4219,-2.42576 -2.6875,-4.5625 -1.9223,-1.81301 -3.8009,-4.6295 -4.1562,-6.25 -1.0046,-4.58062 -2.6465,-7.34228 -4.7188,-8 -1.0434,-0.33117 -2.3076,-1.70331 -2.8125,-3.03125 -0.6382,-1.67847 -1.6706,-2.40625 -3.4375,-2.40625 -1.7068,0 -3.9794,-1.47803 -6.875,-4.5 l -4.3125,-4.5 -9,0 c -7.74643,0 -9.28873,-0.28171 -10.84375,-2 -0.99549,-1.1 -2.39937,-2 -3.125,-2 -0.72563,0 -2.03531,-1.37829 -2.90625,-3.0625 -0.90161,-1.74352 -1.84626,-2.64559 -2.84375,-2.6875 z m -0.6875,4.25 c 1.12611,0.0572 2.31057,2.14078 4.1875,6.5625 2.6056,6.13832 5.69646,8.79933 5.09375,4.375 -0.26488,-1.94449 0.2615,-2.06818 9.28125,-2.21875 l 9.56255,-0.15625 4.6875,4.96875 c 2.5788,2.73232 5.2574,4.96875 5.9687,4.96875 0.7113,0 1.2813,0.42613 1.2813,0.96875 0,0.54262 1.5349,1.65563 3.4062,2.4375 2.8964,1.21018 3.66,2.22058 5.0313,6.9375 0.8859,3.04752 2.0125,5.80439 2.5312,6.125 0.5188,0.32061 0.7117,1.23514 0.4063,2.03125 -0.3055,0.79612 0.4393,3.5175 1.6562,6.03125 2.4307,5.02116 1.6576,17.68311 -1.2187,19.9375 -0.9327,0.73096 -1.3016,4.01889 -1.25,11.53125 0.096,13.96353 -0.022,13.39963 3.6875,17.625 2.1168,2.41096 2.8141,3.85362 2,4.125 -2.1372,0.71239 -1.3612,3.69224 1.625,6.3125 2.2972,2.01583 3.0001,3.67402 3.5937,8.46875 0.4062,3.2807 1.2014,6.54375 1.7813,7.25 0.7464,0.90904 0.6951,1.97572 -0.1875,3.625 -5.9239,11.06889 25.3788,27.15088 57.5625,29.59375 22.8835,1.73695 30.9334,4.60177 39.9687,14.15625 9.9698,10.54266 15.3726,21.26871 15.4063,30.625 0.01,2.66376 0.6128,3.62348 3.1562,5 26.6326,14.41391 36.2259,25.0528 36.3125,40.21875 0.069,12.02899 -4.5274,19.15881 -19.7812,30.65625 -17.9,13.49193 -21.8026,20.44613 -16.125,28.8125 3.1021,4.57123 2.6034,5.38632 -1.75,2.84375 -4.0022,-2.33739 -6.169,-5.43254 -6.5625,-9 0.016,-0.76988 0.023,-1.52494 0,-2.28125 0.5431,-6.10746 5.7232,-13.32225 15.2187,-20.46875 27.4527,-20.66151 29.6854,-44.0834 5.5313,-57.6875 -1.925,-1.0842 -5.3,-3.06892 -7.5,-4.40625 -4.5836,-2.78621 -5.5,-3.00247 -5.5,-1.1875 0,0.71444 1.8314,2.40195 4.0625,3.75 28.2545,17.07267 29.3389,36.87592 3,55.4375 -24.2498,17.08926 -26.6022,37.14994 -6.6563,57.03125 7.7699,7.74472 9.658,11.36469 9.5625,18.5 l -0.063,3.5 -1.625,-2.5 c -0.8987,-1.375 -6.33,-7.22501 -12.0625,-13 -26.3288,-26.52372 -23.8723,-42.92226 11,-73.25 10.5624,-9.1859 13.3776,-18.4459 8.7188,-28.75 -2.4867,-5.49974 -7.6316,-11.00001 -10.2813,-11 -1.0777,0 -3.4774,-1.17024 -5.3437,-2.59375 -4.3812,-3.34167 -5.5007,-2.79773 -7.5625,3.71875 -3.2004,10.11448 -16.3386,23.39309 -27.5,27.78125 -22.0223,8.6581 -28.9777,20.33555 -23.25,39.09375 3.6328,11.89757 2.1316,15.30227 -7.5,17.0625 -3.3,0.60309 -8.925,2.38384 -12.5,3.9375 -3.9111,1.69973 -9.784,3.22006 -14.75,3.8125 -15.17,1.8097 -21.7837,7.00934 -19.5313,15.375 0.9187,3.41228 0.9099,4.71698 -0.125,6.3125 -0.7187,1.10806 -1.6175,3.44607 -2,5.1875 -0.8828,4.01947 -1.9642,4.86485 -9.1875,7.28125 -3.2409,1.08416 -6.1312,1.93639 -6.4062,1.875 -0.275,-0.06138 -1.625,-0.31582 -3,-0.5625 -4.8859,-0.87652 -4.3317,-6.21927 2.0312,-19.78125 1.5483,-3.3 3.1181,-8.52901 3.4688,-11.625 0.8215,-7.25237 3.2584,-9.6384 11.6875,-11.40625 6.4401,-1.35071 28.5384,-12.04273 32.3125,-15.625 2.2462,-2.13211 2.4628,-1.27566 -4.9063,-18.96875 -3.6101,-8.66771 -4.7316,-12.8196 -6.6562,-24.875 -1.7901,-11.21226 -5.2184,-14.35536 -17,-15.46875 -19.2808,-1.82208 -37.9223,-7.62452 -48.5313,-15.125 -14.80303,-10.4656 -18.72183,-14.03693 -28.84375,-26.40625 -5.17588,-6.3251 -10.54182,-15.62827 -10.53125,-18.21875 0.003,-0.70578 3.15289,-2.72535 7,-4.46875 4.37131,-1.98095 6.96874,-3.76248 6.96875,-4.75 0,-1.756 -2.09726,-2.03478 -4.75,-0.65625 -0.95504,0.4963 -4.77667,2.319 -8.5,4.0625 l -6.78125,3.1875 L 945,-253.75 c -1.55002,-1.27728 -4.73096,-3.4375 -7.0625,-4.8125 -11.77188,-6.94234 -16.86217,-11.03368 -25.8125,-20.6875 -12.17062,-13.12721 -15.67836,-15.17483 -21.03125,-12.40625 -4.7951,2.48009 -12.03564,10.01218 -16.625,17.28125 -1.97366,3.1261 -4.03735,5.96862 -4.59375,6.3125 -1.5028,0.92878 -1.23548,4.92832 0.65625,9.65625 2.00377,5.00791 0.114,12.22007 -4.46875,17.09375 -3.40895,3.62535 -4.81581,3.46875 -6.1875,-0.6875 -0.62397,-1.89063 -2.07309,-4.63727 -3.21875,-6.09375 -1.91528,-2.43489 -1.97525,-3.08354 -0.875,-8 0.87561,-3.91267 0.90721,-6.40761 0.125,-9.3125 -1.44461,-5.36487 -0.17791,-8.36446 6.375,-15.15625 2.91861,-3.025 6.78974,-7.75 8.59375,-10.5 1.80401,-2.75 4.97976,-6.8 7.0625,-9 2.08273,-2.2 4.51203,-5.86219 5.40625,-8.125 2.85673,-7.22904 7.89593,-8.10169 16.5,-2.875 3.16889,1.925 6.26829,3.5 6.875,3.5 2.36858,0 19.19182,7.84935 22.15625,10.34375 5.79492,4.8761 11.69701,1.64576 13.96875,-7.65625 5.52816,-22.6358 9.21727,-29.41902 21.375,-39.15625 C 981.57307,-357.93048 985.8679,-365.80756 980.5,-374 c -2.77865,-4.24077 -3.82059,-3.14328 -3.09375,3.28125 0.51219,4.52717 0.27766,6.60141 -1.0625,9.25 -3.6466,7.20679 -6.06111,8.47047 -26.78125,13.9375 -5.865,1.54748 -12.11138,5.89147 -14.1875,9.90625 -5.01874,9.70518 -27.93129,0.25446 -24.625,-10.15625 0.57607,-1.81389 1.2796,-4.44884 1.5625,-5.875 0.28289,-1.42617 3.68722,-6.15118 7.59375,-10.5 7.23305,-8.052 12.90876,-17.51643 12.96875,-21.625 0.0397,-2.72069 2.21877,-5.45467 6.96875,-8.75 1.925,-1.33549 5.20057,-4.14162 7.25,-6.21875 2.04943,-2.07713 5.31192,-4.44022 7.25,-5.25 1.93808,-0.80978 3.49999,-1.94669 3.5,-2.53125 0,-0.67382 1.42358,-0.8295 3.875,-0.4375 4.9984,0.79928 7.62246,-0.65962 10.1875,-5.6875 1.1563,-2.26652 1.99913,-3.45073 2.875,-3.40625 z m -64.0625,146.15625 c 1.80694,-0.051 3.38156,1.21355 8.625,5.6875 4.02594,3.43512 9.71763,7.53881 12.65625,9.125 2.93863,1.58618 7.3334,4.35844 9.75,6.1875 2.41659,1.82906 5.11658,3.35671 6,3.375 1.23052,0.0255 1.05863,0.49328 -0.75,2 -2.81424,2.3445 -5.24086,2.47626 -9.0625,0.5 -5.84706,-3.02364 -11.82308,-4.62133 -19.09375,-5.125 -4.125,-0.28576 -9.37234,-1.00906 -11.6875,-1.59375 -6.614,-1.67033 -8.77081,-0.61352 -11.78125,5.75 -3.77108,7.97143 -2.88102,24.79463 1.375,26.0625 8.12305,2.41987 12.55076,6.26576 15.09375,13.0625 2.4959,6.67089 2.55854,9.29304 0.25,9.34375 -0.9625,0.0212 -4.83217,0.13366 -8.625,0.25 l -6.90625,0.21875 -2.3125,-3.6875 c -1.27739,-2.02418 -4.26982,-5.01436 -6.65625,-6.65625 -2.38643,-1.6419 -4.96161,-3.74395 -5.71875,-4.65625 -1.96898,-2.37248 -1.48295,-26.9501 0.6875,-34.8125 1.23787,-4.48417 1.3438,-6.60246 0.53125,-9.25 -2.29503,-7.4779 5.7779,-14.99094 15.71875,-14.625 3.59199,0.13222 8.03959,-0.20802 9.875,-0.75 0.79683,-0.2353 1.42894,-0.38924 2.03125,-0.40625 z M 1160.5,-196 c 0.2745,-0.2163 1.3721,1.358 3.4688,4.625 7.7699,12.1073 4.8656,21.76908 -10.125,33.59375 -37.6466,29.69573 -41.1935,44.06276 -18.7188,75.96875 1.733,2.46018 2.9977,5.78259 3.3438,8.84375 0.4066,3.5972 0.1474,5.44034 -1,6.90625 -1.4977,1.91326 -1.5546,1.85156 -1,-1.125 0.7799,-4.18655 -1.5391,-8.49 -8.5625,-15.875 -24.5446,-25.8081 -20.0419,-51.28975 12.9375,-73 21.3247,-14.03808 25.5184,-20.71532 21.2187,-33.8125 -1.283,-3.90814 -1.837,-5.9087 -1.5625,-6.125 z m -98.0625,52.90625 c 0.5128,-0.10251 1.1589,1.29274 2.7813,4.90625 1.4506,3.23094 2.625,5.99756 2.625,6.15625 0,0.82691 -22.6427,11.46806 -24.4063,11.46875 -2.7148,0.001 -14.7848,2.58978 -21,4.5 -2.6999,0.82982 -6.2999,1.49762 -8,1.5 -2.2576,0.003 -4.41,1.21647 -8.0312,4.5 -6.3023,5.7145 -23.81554,6.42949 -25.87505,1.0625 -0.56085,-1.46153 8.72167,-11.56251 10.625,-11.5625 0.56078,0 3.10185,-1.32967 5.625,-2.9375 6.04335,-3.85099 14.22125,-5.8381 27.06255,-6.59375 29.7768,-1.75221 34.0715,-3.05645 37.625,-11.375 0.4106,-0.96122 0.661,-1.56349 0.9687,-1.625 z"
           id="path2241"
           inkscape:connector-curvature="0" />
      </g>
    </g>
  </g>
</svg>
